<?xml version="1.0" encoding="utf-8"?>
<!-- Generator: Adobe Illustrator 25.0.0, SVG Export Plug-In . SVG Version: 6.00 Build 0)  -->
<svg version="1.1" xmlns="http://www.w3.org/2000/svg" xmlns:xlink="http://www.w3.org/1999/xlink" x="0px" y="0px"
	 viewBox="0 0 500 500" style="enable-background:new 0 0 500 500;" xml:space="preserve">
<style type="text/css">
	.st0{fill:#92E3A9;}
	.st1{opacity:0.7;fill:#FFFFFF;}
	.st2{fill:#888E92;}
	.st3{fill:none;stroke:#92E3A9;stroke-linecap:round;stroke-linejoin:round;stroke-miterlimit:10;}
	.st4{fill:#32C766;}
	.st5{fill:#263238;stroke:#263238;stroke-linecap:round;stroke-linejoin:round;stroke-miterlimit:10;}
	.st6{fill:#FFFFFF;stroke:#263238;stroke-linecap:round;stroke-linejoin:round;stroke-miterlimit:10;}
	.st7{fill:#575757;stroke:#263238;stroke-linecap:round;stroke-linejoin:round;stroke-miterlimit:10;}
	.st8{fill:#FFFFFF;}
	.st9{fill:none;stroke:#FFFFFF;stroke-width:2;stroke-linecap:round;stroke-miterlimit:10;}
	.st10{fill:none;stroke:#FFFFFF;stroke-linecap:round;stroke-linejoin:round;stroke-miterlimit:10;}
	.st11{fill:none;stroke:#FFFFFF;stroke-width:0.8211;stroke-linecap:round;stroke-linejoin:round;stroke-miterlimit:10;}
	.st12{fill:#FFFFFF;stroke:#FFFFFF;stroke-width:0.7251;stroke-linecap:round;stroke-linejoin:round;stroke-miterlimit:10;}
	.st13{fill:#FFFFFF;stroke:#FFFFFF;stroke-width:0.8831;stroke-linecap:round;stroke-linejoin:round;stroke-miterlimit:10;}
	.st14{fill:#949494;}
	.st15{fill:none;stroke:#FFFFFF;stroke-width:2;stroke-miterlimit:10;}
	.st16{fill:none;stroke:#FFFFFF;stroke-linecap:round;stroke-miterlimit:10;}
	.st17{font-family:'AdobeArabic-Regular';}
	.st18{font-size:31.0023px;}
	.st19{fill:#32C766;stroke:#263238;stroke-linecap:round;stroke-linejoin:round;stroke-miterlimit:10;}
	.st20{fill:#263238;}
	.st21{fill:none;stroke:#263238;stroke-linecap:round;stroke-linejoin:round;stroke-miterlimit:10;}
	.st22{fill:none;stroke:#263238;stroke-miterlimit:10;}
</style>
<g id="Background_Simple">
	<g>
		<path class="st0" d="M27.62,175.94c0,0,19.24-81.36,95.11-120.97c75.87-39.61,166.33-22.74,239.98-11.1
			c73.65,11.64,120.53,68,115.52,135.61c-5.01,67.61-64.42,74.02-109.78,141.79c-45.37,67.76-47.71,92.95-120.78,124.16
			C174.6,476.64,80.76,425.32,44.62,334.46C8.49,243.6,27.62,175.94,27.62,175.94z"/>
		<path class="st1" d="M27.62,175.94c0,0,19.24-81.36,95.11-120.97c75.87-39.61,166.33-22.74,239.98-11.1
			c73.65,11.64,120.53,68,115.52,135.61c-5.01,67.61-64.42,74.02-109.78,141.79c-45.37,67.76-47.71,92.95-120.78,124.16
			C174.6,476.64,80.76,425.32,44.62,334.46C8.49,243.6,27.62,175.94,27.62,175.94z"/>
	</g>
</g>
<g id="Graphics">
	<g>
		<path class="st2" d="M413.41,147.45c-0.83,0-1.51-0.68-1.51-1.51s0.68-1.51,1.51-1.51c0.83,0,1.51,0.68,1.51,1.51
			S414.25,147.45,413.41,147.45z"/>
		<path class="st2" d="M429.29,147.45c-0.83,0-1.51-0.68-1.51-1.51s0.68-1.51,1.51-1.51c0.84,0,1.51,0.68,1.51,1.51
			S430.13,147.45,429.29,147.45z"/>
		<path class="st2" d="M444.4,147.45c-0.83,0-1.51-0.68-1.51-1.51s0.68-1.51,1.51-1.51s1.51,0.68,1.51,1.51
			S445.24,147.45,444.4,147.45z"/>
		<path class="st2" d="M413.41,162.64c-0.83,0-1.51-0.68-1.51-1.51c0-0.83,0.68-1.51,1.51-1.51c0.83,0,1.51,0.68,1.51,1.51
			C414.92,161.96,414.25,162.64,413.41,162.64z"/>
		<path class="st2" d="M429.29,162.64c-0.83,0-1.51-0.68-1.51-1.51c0-0.83,0.68-1.51,1.51-1.51c0.84,0,1.51,0.68,1.51,1.51
			C430.8,161.96,430.13,162.64,429.29,162.64z"/>
		<path class="st2" d="M444.4,162.64c-0.83,0-1.51-0.68-1.51-1.51c0-0.83,0.68-1.51,1.51-1.51s1.51,0.68,1.51,1.51
			C445.91,161.96,445.24,162.64,444.4,162.64z"/>
		<path class="st2" d="M413.41,177.82c-0.83,0-1.51-0.68-1.51-1.51s0.68-1.51,1.51-1.51c0.83,0,1.51,0.68,1.51,1.51
			S414.25,177.82,413.41,177.82z"/>
		<path class="st2" d="M429.29,177.82c-0.83,0-1.51-0.68-1.51-1.51s0.68-1.51,1.51-1.51c0.84,0,1.51,0.68,1.51,1.51
			S430.13,177.82,429.29,177.82z"/>
		<circle class="st2" cx="444.4" cy="176.3" r="1.51"/>
		<path class="st2" d="M429.29,193c-0.83,0-1.51-0.68-1.51-1.51c0-0.83,0.68-1.51,1.51-1.51c0.84,0,1.51,0.68,1.51,1.51
			C430.8,192.32,430.13,193,429.29,193z"/>
		<path class="st2" d="M413.41,43.82c-0.83,0-1.51-0.68-1.51-1.51s0.68-1.51,1.51-1.51c0.83,0,1.51,0.68,1.51,1.51
			S414.25,43.82,413.41,43.82z"/>
		<path class="st2" d="M429.29,43.82c-0.83,0-1.51-0.68-1.51-1.51s0.68-1.51,1.51-1.51c0.84,0,1.51,0.68,1.51,1.51
			S430.13,43.82,429.29,43.82z"/>
		<circle class="st2" cx="444.4" cy="42.3" r="1.51"/>
		<path class="st2" d="M413.41,59c-0.83,0-1.51-0.68-1.51-1.51c0-0.83,0.68-1.51,1.51-1.51c0.83,0,1.51,0.68,1.51,1.51
			C414.92,58.32,414.25,59,413.41,59z"/>
		<path class="st2" d="M429.29,59c-0.83,0-1.51-0.68-1.51-1.51c0-0.83,0.68-1.51,1.51-1.51c0.84,0,1.51,0.68,1.51,1.51
			C430.8,58.32,430.13,59,429.29,59z"/>
		<path class="st2" d="M444.4,59c-0.83,0-1.51-0.68-1.51-1.51c0-0.83,0.68-1.51,1.51-1.51s1.51,0.68,1.51,1.51
			C445.91,58.32,445.24,59,444.4,59z"/>
		<path class="st2" d="M413.41,74.18c-0.83,0-1.51-0.68-1.51-1.51c0-0.83,0.68-1.51,1.51-1.51c0.83,0,1.51,0.68,1.51,1.51
			C414.92,73.5,414.25,74.18,413.41,74.18z"/>
		<path class="st2" d="M429.29,74.18c-0.83,0-1.51-0.68-1.51-1.51c0-0.83,0.68-1.51,1.51-1.51c0.84,0,1.51,0.68,1.51,1.51
			C430.8,73.5,430.13,74.18,429.29,74.18z"/>
		<path class="st2" d="M444.4,74.18c-0.83,0-1.51-0.68-1.51-1.51c0-0.83,0.68-1.51,1.51-1.51s1.51,0.68,1.51,1.51
			C445.91,73.5,445.24,74.18,444.4,74.18z"/>
		<path class="st2" d="M429.29,89.36c-0.83,0-1.51-0.68-1.51-1.51c0-0.83,0.68-1.51,1.51-1.51c0.84,0,1.51,0.68,1.51,1.51
			C430.8,88.68,430.13,89.36,429.29,89.36z"/>
		<path class="st2" d="M32.5,218.33c-0.83,0-1.51-0.68-1.51-1.51c0-0.83,0.68-1.51,1.51-1.51c0.83,0,1.51,0.68,1.51,1.51
			C34.01,217.65,33.33,218.33,32.5,218.33z"/>
		<path class="st2" d="M48.38,218.33c-0.83,0-1.51-0.68-1.51-1.51c0-0.83,0.68-1.51,1.51-1.51c0.83,0,1.51,0.68,1.51,1.51
			C49.89,217.65,49.21,218.33,48.38,218.33z"/>
		<path class="st2" d="M63.49,218.33c-0.83,0-1.51-0.68-1.51-1.51c0-0.83,0.68-1.51,1.51-1.51c0.83,0,1.51,0.68,1.51,1.51
			C65,217.65,64.32,218.33,63.49,218.33z"/>
		<path class="st2" d="M32.5,233.51c-0.83,0-1.51-0.68-1.51-1.51s0.68-1.51,1.51-1.51c0.83,0,1.51,0.68,1.51,1.51
			S33.33,233.51,32.5,233.51z"/>
		<path class="st2" d="M48.38,233.51c-0.83,0-1.51-0.68-1.51-1.51s0.68-1.51,1.51-1.51c0.83,0,1.51,0.68,1.51,1.51
			S49.21,233.51,48.38,233.51z"/>
		<path class="st2" d="M63.49,233.51c-0.83,0-1.51-0.68-1.51-1.51s0.68-1.51,1.51-1.51c0.83,0,1.51,0.68,1.51,1.51
			S64.32,233.51,63.49,233.51z"/>
		<path class="st2" d="M32.5,248.7c-0.83,0-1.51-0.68-1.51-1.51c0-0.83,0.68-1.51,1.51-1.51c0.83,0,1.51,0.68,1.51,1.51
			C34.01,248.02,33.33,248.7,32.5,248.7z"/>
		<path class="st2" d="M48.38,248.7c-0.83,0-1.51-0.68-1.51-1.51c0-0.83,0.68-1.51,1.51-1.51c0.83,0,1.51,0.68,1.51,1.51
			C49.89,248.02,49.21,248.7,48.38,248.7z"/>
		<path class="st2" d="M63.49,248.7c-0.83,0-1.51-0.68-1.51-1.51c0-0.83,0.68-1.51,1.51-1.51c0.83,0,1.51,0.68,1.51,1.51
			C65,248.02,64.32,248.7,63.49,248.7z"/>
		<path class="st2" d="M48.38,263.88c-0.83,0-1.51-0.68-1.51-1.51c0-0.83,0.68-1.51,1.51-1.51c0.83,0,1.51,0.68,1.51,1.51
			C49.89,263.2,49.21,263.88,48.38,263.88z"/>
		<path class="st2" d="M136.5,64.33c-0.83,0-1.51-0.68-1.51-1.51c0-0.83,0.68-1.51,1.51-1.51c0.83,0,1.51,0.68,1.51,1.51
			C138.01,63.65,137.33,64.33,136.5,64.33z"/>
		<path class="st2" d="M152.38,64.33c-0.83,0-1.51-0.68-1.51-1.51c0-0.83,0.68-1.51,1.51-1.51c0.83,0,1.51,0.68,1.51,1.51
			C153.89,63.65,153.21,64.33,152.38,64.33z"/>
		<path class="st2" d="M167.49,64.33c-0.83,0-1.51-0.68-1.51-1.51c0-0.83,0.68-1.51,1.51-1.51c0.83,0,1.51,0.68,1.51,1.51
			C169,63.65,168.32,64.33,167.49,64.33z"/>
		<path class="st2" d="M136.5,79.51c-0.83,0-1.51-0.68-1.51-1.51s0.68-1.51,1.51-1.51c0.83,0,1.51,0.68,1.51,1.51
			S137.33,79.51,136.5,79.51z"/>
		<path class="st2" d="M152.38,79.51c-0.83,0-1.51-0.68-1.51-1.51s0.68-1.51,1.51-1.51c0.83,0,1.51,0.68,1.51,1.51
			S153.21,79.51,152.38,79.51z"/>
		<path class="st2" d="M167.49,79.51c-0.83,0-1.51-0.68-1.51-1.51s0.68-1.51,1.51-1.51c0.83,0,1.51,0.68,1.51,1.51
			S168.32,79.51,167.49,79.51z"/>
		<path class="st2" d="M136.5,94.7c-0.83,0-1.51-0.68-1.51-1.51c0-0.83,0.68-1.51,1.51-1.51c0.83,0,1.51,0.68,1.51,1.51
			C138.01,94.02,137.33,94.7,136.5,94.7z"/>
		<path class="st2" d="M152.38,94.7c-0.83,0-1.51-0.68-1.51-1.51c0-0.83,0.68-1.51,1.51-1.51c0.83,0,1.51,0.68,1.51,1.51
			C153.89,94.02,153.21,94.7,152.38,94.7z"/>
		<path class="st2" d="M167.49,94.7c-0.83,0-1.51-0.68-1.51-1.51c0-0.83,0.68-1.51,1.51-1.51c0.83,0,1.51,0.68,1.51,1.51
			C169,94.02,168.32,94.7,167.49,94.7z"/>
		<path class="st2" d="M152.38,109.88c-0.83,0-1.51-0.68-1.51-1.51c0-0.83,0.68-1.51,1.51-1.51c0.83,0,1.51,0.68,1.51,1.51
			C153.89,109.2,153.21,109.88,152.38,109.88z"/>
	</g>
</g>
<g id="Plant_1_">
	<g>
		<g>
			<g>
				<line class="st3" x1="434.02" y1="379.97" x2="434.02" y2="258.03"/>
				<path class="st4" d="M433.11,368.97c0,0-6.42-9.17-14.67-13.75c-8.25-4.58-22.01-4.58-22.01-4.58S403.77,377.22,433.11,368.97z"
					/>
				<path class="st4" d="M434.02,368.97c0,0,6.42-9.17,14.67-13.75c8.25-4.58,22.01-4.58,22.01-4.58S463.36,377.22,434.02,368.97z"
					/>
				<path class="st4" d="M433.11,335.96c0,0-6.42-9.17-14.67-13.75c-8.25-4.58-22.01-4.58-22.01-4.58S403.77,344.22,433.11,335.96z"
					/>
				<path class="st4" d="M434.02,335.96c0,0,6.42-9.17,14.67-13.75c8.25-4.58,22.01-4.58,22.01-4.58S463.36,344.22,434.02,335.96z"
					/>
				<path class="st4" d="M433.11,302.96c0,0-6.42-9.17-14.67-13.75c-8.25-4.58-22.01-4.58-22.01-4.58S403.77,311.21,433.11,302.96z"
					/>
				<path class="st4" d="M434.02,302.96c0,0,6.42-9.17,14.67-13.75c8.25-4.58,22.01-4.58,22.01-4.58S463.36,311.21,434.02,302.96z"
					/>
				<path class="st4" d="M433.11,269.95c0,0-6.42-9.17-14.67-13.75c-8.25-4.58-22.01-4.58-22.01-4.58S403.77,278.2,433.11,269.95z"
					/>
				<path class="st4" d="M434.02,269.95c0,0,6.42-9.17,14.67-13.75c8.25-4.58,22.01-4.58,22.01-4.58S463.36,278.2,434.02,269.95z"/>
				<path class="st4" d="M434.02,258.03c0,0-7.34-9.87-7.71-19.31c-0.37-9.43,5.83-21.71,5.83-21.71S454.62,235.56,434.02,258.03z"
					/>
			</g>
			<polygon class="st5" points="415.66,377.69 451.24,377.69 442.34,475 424.56,475 			"/>
		</g>
	</g>
</g>
<g id="Device">
	<g>
		<path class="st5" d="M392.15,166.17c0.8,0,1.44-0.65,1.44-1.44v-38.76c0-0.8-0.65-1.44-1.44-1.44h-3.76V50.48
			c0-10.28-8.33-18.61-18.61-18.61H188.05c-10.28,0-18.61,8.33-18.61,18.61v382.07c0,10.28,8.33,18.61,18.61,18.61h181.73
			c10.28,0,18.61-8.33,18.61-18.61V199.49h3.76c0.8,0,1.44-0.65,1.44-1.44V180.8c0-0.8-0.65-1.44-1.44-1.44h-3.76v-13.19H392.15z
			 M382.1,418.06c0,7.34-6.11,13.28-13.64,13.28H189.37c-7.53,0-13.64-5.95-13.64-13.28V54.51c0-7.34,6.11-13.28,13.64-13.28h70.6
			l2.94,5.45c3.12,5.8,9.29,9.43,16.01,9.43c6.72,0,12.89-3.63,16.02-9.43l2.94-5.45h70.6c7.53,0,13.64,5.95,13.64,13.28V418.06z"/>
		<path class="st6" d="M283.77,43.31c0-2.68-2.18-4.86-4.86-4.86c-2.68,0-4.86,2.18-4.86,4.86c0,2.68,2.18,4.86,4.86,4.86
			C281.6,48.16,283.77,45.99,283.77,43.31z"/>
		<g>
			<path class="st7" d="M368.46,41.22h-70.6l-2.94,5.45c-3.12,5.8-9.29,9.43-16.01,9.43c-6.72,0-12.89-3.63-16.02-9.43l-2.94-5.45
				h-70.6c-7.53,0-13.64,5.95-13.64,13.28v363.55c0,7.34,6.11,13.28,13.64,13.28h179.09c7.53,0,13.64-5.95,13.64-13.28V54.51
				C382.1,47.17,376,41.22,368.46,41.22z"/>
			<g>
				<path class="st8" d="M216.17,376.64c0,0.61-0.49,1.1-1.1,1.1c-0.61,0-1.1-0.49-1.1-1.1c0-0.61,0.49-1.1,1.1-1.1
					C215.68,375.53,216.17,376.03,216.17,376.64z"/>
				<path class="st8" d="M220.05,376.64c0,0.61-0.49,1.1-1.1,1.1c-0.61,0-1.1-0.49-1.1-1.1c0-0.61,0.49-1.1,1.1-1.1
					C219.56,375.53,220.05,376.03,220.05,376.64z"/>
				<path class="st8" d="M223.75,376.64c0,0.61-0.49,1.1-1.1,1.1c-0.61,0-1.1-0.49-1.1-1.1c0-0.61,0.49-1.1,1.1-1.1
					C223.25,375.53,223.75,376.03,223.75,376.64z"/>
				<path class="st8" d="M216.17,380.35c0,0.61-0.49,1.1-1.1,1.1c-0.61,0-1.1-0.49-1.1-1.1c0-0.61,0.49-1.1,1.1-1.1
					C215.68,379.24,216.17,379.74,216.17,380.35z"/>
				<path class="st8" d="M220.05,380.35c0,0.61-0.49,1.1-1.1,1.1c-0.61,0-1.1-0.49-1.1-1.1c0-0.61,0.49-1.1,1.1-1.1
					C219.56,379.24,220.05,379.74,220.05,380.35z"/>
				<path class="st8" d="M223.75,380.35c0,0.61-0.49,1.1-1.1,1.1c-0.61,0-1.1-0.49-1.1-1.1c0-0.61,0.49-1.1,1.1-1.1
					C223.25,379.24,223.75,379.74,223.75,380.35z"/>
				<path class="st8" d="M216.17,384.06c0,0.61-0.49,1.1-1.1,1.1c-0.61,0-1.1-0.49-1.1-1.1c0-0.61,0.49-1.1,1.1-1.1
					C215.68,382.95,216.17,383.45,216.17,384.06z"/>
				<path class="st8" d="M220.05,384.06c0,0.61-0.49,1.1-1.1,1.1c-0.61,0-1.1-0.49-1.1-1.1c0-0.61,0.49-1.1,1.1-1.1
					C219.56,382.95,220.05,383.45,220.05,384.06z"/>
				<path class="st8" d="M223.75,384.06c0,0.61-0.49,1.1-1.1,1.1c-0.61,0-1.1-0.49-1.1-1.1c0-0.61,0.49-1.1,1.1-1.1
					C223.25,382.95,223.75,383.45,223.75,384.06z"/>
				<path class="st8" d="M220.05,387.77c0,0.61-0.49,1.1-1.1,1.1c-0.61,0-1.1-0.49-1.1-1.1s0.49-1.1,1.1-1.1
					C219.56,386.66,220.05,387.16,220.05,387.77z"/>
			</g>
			<g>
				<path class="st9" d="M339.27,376.68l-6.45,3.72h-4.37c-0.34,0-0.61,0.27-0.61,0.61v3.66c0,0.34,0.27,0.61,0.61,0.61h4.37
					l6.45,3.72V376.68z"/>
				<g>
					<path class="st8" d="M345.18,382.85c0,1.81-0.74,3.46-1.93,4.65l1,1.07c1.47-1.46,2.39-3.49,2.39-5.72
						c0-2.36-1.03-4.48-2.65-5.96l-1.09,0.99C344.3,379.09,345.18,380.87,345.18,382.85z"/>
					<path class="st8" d="M341.76,382.85c0,0.83-0.33,1.58-0.85,2.15l1.01,1.07c0.81-0.84,1.31-1.97,1.31-3.23
						c0-1.48-0.7-2.8-1.79-3.65l-1.11,1C341.19,380.77,341.76,381.74,341.76,382.85z"/>
				</g>
			</g>
			<g>
				<polygon class="st10" points="236.69,419.23 243.7,423.27 243.7,415.18 				"/>
				<path class="st10" d="M281,419.23c0-2.06-1.67-3.73-3.73-3.73c-2.06,0-3.73,1.67-3.73,3.73c0,2.06,1.67,3.73,3.73,3.73
					C279.33,422.96,281,421.29,281,419.23z"/>
				<rect x="310.29" y="415.18" class="st10" width="8.09" height="8.09"/>
			</g>
			<g>
				<rect x="353.67" y="46.45" class="st11" width="14.23" height="7.81"/>
				<rect x="353.67" y="46.45" class="st12" width="11.1" height="7.81"/>
				<rect x="367.87" y="48.63" class="st12" width="2.01" height="3.44"/>
			</g>
			<g>
				<rect x="187.48" y="48.87" class="st13" width="2.61" height="4.47"/>
				<rect x="191.58" y="47.3" class="st13" width="2.61" height="6.05"/>
				<rect x="195.68" y="45.44" class="st13" width="2.61" height="7.9"/>
			</g>
			<line class="st10" x1="182.04" y1="60.42" x2="375.75" y2="60.42"/>
			<g>
				<g>
					<path class="st8" d="M344.14,54.1c0-0.52-0.42-0.94-0.94-0.94c-0.52,0-0.94,0.42-0.94,0.94s0.42,0.94,0.94,0.94
						C343.72,55.04,344.14,54.62,344.14,54.1z"/>
				</g>
				<g>
					<path class="st8" d="M338.21,49.37c1.26-1.32,3.02-2.15,4.99-2.15c1.84,0,3.51,0.73,4.75,1.91l0.52-0.54
						c-1.37-1.31-3.22-2.12-5.26-2.12c-2.18,0-4.14,0.92-5.53,2.39L338.21,49.37z"/>
					<path class="st8" d="M339.2,50.3l0.55,0.52c0.87-0.92,2.09-1.5,3.46-1.5c1.28,0,2.43,0.51,3.29,1.33l0.52-0.55
						c-0.99-0.95-2.33-1.53-3.81-1.53C341.63,48.57,340.21,49.24,339.2,50.3z"/>
					<path class="st8" d="M340.9,51.92l0.54,0.51c0.44-0.47,1.07-0.76,1.76-0.76c0.65,0,1.24,0.26,1.68,0.68l0.52-0.54
						c-0.57-0.55-1.34-0.89-2.19-0.89C342.29,50.92,341.48,51.3,340.9,51.92z"/>
				</g>
			</g>
			<g>
				<g>
					
						<ellipse transform="matrix(0.1617 -0.9868 0.9868 0.1617 107.1822 382.6953)" class="st14" cx="278.85" cy="128.26" rx="30.85" ry="30.85"/>
					<path class="st8" d="M253.43,145.74c5.56,8.08,14.87,13.37,25.42,13.37c10.49,0,19.75-5.24,25.32-13.23
						c-3.77-1.39-18.84-7.03-18.84-8.13c0-1.25,2.09-4.69,3.58-7.81c0.37-0.77,0.9-3.12,0.9-3.12s0,0,1.79-1.88
						c1.79-1.87,0.9-4.69,0.6-5.94c-0.27-1.15-2.31-0.19-2.64-0.02c-0.22-3.74-0.7-7.34-1.24-9.04c-1.05-3.3-6.96-4.79-8.35-4.9
						c0-0.01,0-0.02,0-0.02h-0.3h-2.09h-0.3c0,0,0,0.01,0,0.02c-1.39,0.1-7.3,1.59-8.35,4.9c-0.54,1.69-1.02,5.3-1.24,9.04
						c-0.32-0.16-2.36-1.13-2.64,0.02c-0.3,1.25-1.19,4.06,0.6,5.94c1.79,1.88,1.79,1.88,1.79,1.88s0.53,2.36,0.9,3.12
						c1.49,3.13,3.58,6.56,3.58,7.81C271.9,138.81,257.73,144.14,253.43,145.74z"/>
				</g>
				<g>
					<path class="st8" d="M266.09,203.23c0-1.69,0.77-2.91,2.53-2.91c1.76,0,2.53,1.21,2.53,2.91v5.88c0,1.67-0.77,2.91-2.53,2.91
						c-1.76,0-2.53-1.23-2.53-2.91V203.23z M266.84,209.13c0,1.26,0.51,2.18,1.77,2.18c1.26,0,1.77-0.92,1.77-2.18v-5.96
						c0-1.25-0.51-2.17-1.77-2.17c-1.26,0-1.77,0.92-1.77,2.17V209.13z"/>
					<path class="st8" d="M272.34,203.23c0-1.69,0.77-2.91,2.53-2.91c1.76,0,2.53,1.21,2.53,2.91v5.88c0,1.67-0.77,2.91-2.53,2.91
						c-1.76,0-2.53-1.23-2.53-2.91V203.23z M273.1,209.13c0,1.26,0.51,2.18,1.77,2.18c1.26,0,1.77-0.92,1.77-2.18v-5.96
						c0-1.25-0.51-2.17-1.77-2.17c-1.26,0-1.77,0.92-1.77,2.17V209.13z"/>
					<path class="st8" d="M279.39,210.46v1.44h-0.74v-1.44H279.39z"/>
					<path class="st8" d="M285.66,203.24c0,3.32-4.15,4.46-4.2,7.85v0.13h4.1v0.69h-4.86v-0.56c0-4.05,4.2-4.92,4.2-8.08
						c0-1.33-0.44-2.27-1.76-2.27c-1.26,0-1.72,0.98-1.72,2.22v0.79h-0.72v-0.74c0-1.66,0.71-2.96,2.48-2.96
						C284.97,200.32,285.66,201.57,285.66,203.24z"/>
					<path class="st8" d="M287.74,205.21c0.39-0.62,1-0.89,1.85-0.89c1.59,0,2.23,1.21,2.23,2.81v1.97c0,1.66-0.74,2.91-2.49,2.91
						c-1.74,0-2.48-1.25-2.48-2.91v-0.62h0.72v0.66c0,1.23,0.49,2.17,1.74,2.17c1.26,0,1.76-0.94,1.76-2.17v-1.94
						c0-1.23-0.49-2.17-1.76-2.17c-0.84,0-1.41,0.46-1.64,1.31v0.2h-0.71l0.3-6.14h4.32v0.71h-3.63L287.74,205.21z"/>
				</g>
			</g>
			<g>
				<path class="st15" d="M229.97,268.28h-19.18c-1.1,0-2-0.9-2-2v-17.89c0-1.1,0.9-2,2-2h19.18c1.1,0,2,0.9,2,2v17.89
					C231.97,267.39,231.07,268.28,229.97,268.28z"/>
				<line class="st15" x1="209.43" y1="253.47" x2="231.97" y2="253.47"/>
				<rect x="223.6" y="260.56" class="st8" width="5.15" height="5.15"/>
				<line class="st9" x1="215.09" y1="246.16" x2="215.09" y2="243.46"/>
				<line class="st9" x1="225.89" y1="246.16" x2="225.89" y2="243.46"/>
			</g>
			<g>
				<path class="st9" d="M230.34,333.14h-20.29c-0.86,0-1.55-0.7-1.55-1.55V306.5c0-0.86,0.7-1.55,1.55-1.55h20.29
					c0.86,0,1.55,0.7,1.55,1.55v25.09C231.89,332.44,231.19,333.14,230.34,333.14z"/>
				<line class="st9" x1="212.69" y1="311.24" x2="227.69" y2="311.24"/>
				<line class="st9" x1="212.69" y1="317.24" x2="227.69" y2="317.24"/>
				<line class="st9" x1="212.69" y1="323.24" x2="221.69" y2="323.24"/>
			</g>
			<g>
				<path class="st16" d="M284.27,318.82v0.99c0,2.86-2.31,5.17-5.17,5.17l0,0c-2.86,0-5.17-2.31-5.17-5.17v-0.99"/>
				<path class="st16" d="M279.1,322.09L279.1,322.09c-1.31,0-2.37-1.06-2.37-2.37v-6.01c0-1.31,1.06-2.37,2.37-2.37l0,0
					c1.31,0,2.37,1.06,2.37,2.37v6.01C281.47,321.03,280.41,322.09,279.1,322.09z"/>
				<line class="st16" x1="279.1" y1="324.98" x2="279.1" y2="328.74"/>
			</g>
			<g>
				<path class="st9" d="M337.62,316.06c0,1.8-1.46,3.26-3.26,3.26c-1.8,0-3.26-1.46-3.26-3.26c0-1.8,1.46-3.26,3.26-3.26
					C336.16,312.79,337.62,314.25,337.62,316.06z"/>
				<path class="st9" d="M342.71,328.98H326v-2.18c0-2.69,2.18-4.87,4.87-4.87h6.98c2.69,0,4.87,2.18,4.87,4.87V328.98z"/>
			</g>
			<g>
				<line class="st16" x1="275.43" y1="247.9" x2="275.43" y2="266.44"/>
				<line class="st16" x1="281.95" y1="247.9" x2="281.95" y2="266.44"/>
			</g>
			<g>
				<line class="st16" x1="334.3" y1="247.9" x2="334.3" y2="266.44"/>
				<line class="st16" x1="343.57" y1="257.17" x2="325.03" y2="257.17"/>
			</g>
			<g>
				<path class="st8" d="M208.88,277.66v0.56h-0.42v-0.59c0-0.72-0.28-1.27-1.02-1.27c-0.74,0-1.02,0.55-1.02,1.27v3.51
					c0,0.72,0.28,1.26,1.02,1.26c0.74,0,1.02-0.54,1.02-1.26v-0.8h0.42v0.77c0,0.98-0.42,1.71-1.46,1.71
					c-1.03,0-1.46-0.73-1.46-1.71v-3.46c0-0.98,0.42-1.71,1.46-1.71C208.45,275.95,208.88,276.69,208.88,277.66z"/>
				<path class="st8" d="M210.25,281.27l-0.34,1.5h-0.41l1.48-6.77h0.65l1.51,6.77h-0.44l-0.34-1.5H210.25z M210.32,280.88h1.97
					l-0.99-4.37L210.32,280.88z"/>
				<path class="st8" d="M213.81,282.77v-6.76h0.44v6.35h2.12v0.41H213.81z"/>
				<path class="st8" d="M219.33,279.14v0.41h-1.84v2.82h2.22v0.41h-2.66v-6.76h2.66v0.41h-2.22v2.72H219.33z"/>
				<path class="st8" d="M220.84,282.77h-0.4v-6.76h0.58l2.03,5.7v-5.7h0.41v6.76h-0.49l-2.11-6.02V282.77z"/>
				<path class="st8" d="M225.7,276.01c1.04,0,1.5,0.69,1.5,1.68v3.4c0,0.99-0.45,1.68-1.5,1.68h-1.49v-6.76H225.7z M225.69,282.36
					c0.75,0,1.06-0.51,1.06-1.25v-3.44c0-0.74-0.32-1.25-1.06-1.25h-1.03v5.94H225.69z"/>
				<path class="st8" d="M228.57,281.27l-0.34,1.5h-0.41l1.48-6.77h0.65l1.51,6.77h-0.44l-0.34-1.5H228.57z M228.64,280.88h1.97
					l-0.99-4.37L228.64,280.88z"/>
				<path class="st8" d="M233.54,276.01c1.03,0,1.45,0.57,1.45,1.52v0.59c0,0.79-0.31,1.25-0.98,1.4c0.7,0.15,0.98,0.65,0.98,1.38
					v1.05c0,0.28,0.02,0.59,0.16,0.81h-0.46c-0.12-0.2-0.14-0.44-0.14-0.81v-1.06c0-0.9-0.49-1.15-1.26-1.15h-0.7v3.02h-0.44v-6.76
					H233.54z M233.29,279.34c0.79,0,1.26-0.22,1.26-1.13v-0.64c0-0.72-0.28-1.16-1.01-1.16h-0.96v2.92H233.29z"/>
			</g>
			<g>
				<path class="st8" d="M272.83,279.59v3.18h-0.44v-6.76h0.44v3.18h2.1v-3.18h0.45v6.76h-0.45v-3.18H272.83z"/>
				<path class="st8" d="M276.13,277.66c0-0.98,0.45-1.71,1.48-1.71c1.04,0,1.5,0.72,1.5,1.71v3.46c0,0.98-0.45,1.71-1.5,1.71
					c-1.02,0-1.48-0.72-1.48-1.71V277.66z M276.57,281.14c0,0.73,0.29,1.27,1.03,1.27c0.75,0,1.05-0.54,1.05-1.27v-3.51
					c0-0.73-0.3-1.27-1.05-1.27c-0.74,0-1.03,0.54-1.03,1.27V281.14z"/>
				<path class="st8" d="M279.84,282.77v-6.76h0.44v6.35h2.12v0.41H279.84z"/>
				<path class="st8" d="M284.56,276.01c1.04,0,1.5,0.69,1.5,1.68v3.4c0,0.99-0.45,1.68-1.5,1.68h-1.49v-6.76H284.56z
					 M284.55,282.36c0.75,0,1.06-0.51,1.06-1.25v-3.44c0-0.74-0.32-1.25-1.06-1.25h-1.03v5.94H284.55z"/>
			</g>
			<g>
				<path class="st8" d="M321.32,281.27l-0.34,1.5h-0.41l1.48-6.77h0.65l1.51,6.77h-0.44l-0.34-1.5H321.32z M321.39,280.88h1.97
					l-0.99-4.37L321.39,280.88z"/>
				<path class="st8" d="M326.37,276.01c1.04,0,1.5,0.69,1.5,1.68v3.4c0,0.99-0.45,1.68-1.5,1.68h-1.49v-6.76H326.37z
					 M326.36,282.36c0.75,0,1.06-0.51,1.06-1.25v-3.44c0-0.74-0.32-1.25-1.06-1.25h-1.03v5.94H326.36z"/>
				<path class="st8" d="M330.09,276.01c1.04,0,1.5,0.69,1.5,1.68v3.4c0,0.99-0.45,1.68-1.5,1.68h-1.49v-6.76H330.09z
					 M330.08,282.36c0.75,0,1.06-0.51,1.06-1.25v-3.44c0-0.74-0.32-1.25-1.06-1.25h-1.03v5.94H330.08z"/>
				<path class="st8" d="M336.7,277.66v0.56h-0.42v-0.59c0-0.72-0.28-1.27-1.02-1.27c-0.74,0-1.02,0.55-1.02,1.27v3.51
					c0,0.72,0.28,1.26,1.02,1.26c0.74,0,1.02-0.54,1.02-1.26v-0.8h0.42v0.77c0,0.98-0.42,1.71-1.46,1.71
					c-1.03,0-1.46-0.73-1.46-1.71v-3.46c0-0.98,0.42-1.71,1.46-1.71C336.27,275.95,336.7,276.69,336.7,277.66z"/>
				<path class="st8" d="M338.07,281.27l-0.34,1.5h-0.41l1.48-6.77h0.65l1.51,6.77h-0.44l-0.34-1.5H338.07z M338.14,280.88h1.97
					l-0.99-4.37L338.14,280.88z"/>
				<path class="st8" d="M341.64,282.77v-6.76h0.44v6.35h2.12v0.41H341.64z"/>
				<path class="st8" d="M344.87,282.77v-6.76h0.44v6.35h2.12v0.41H344.87z"/>
			</g>
			<g>
				<path class="st8" d="M322.72,338.98v0.56h-0.43v-0.59c0-0.72-0.28-1.27-1.02-1.27s-1.02,0.55-1.02,1.27v3.51
					c0,0.72,0.28,1.26,1.02,1.26s1.02-0.54,1.02-1.26v-0.8h0.43v0.77c0,0.98-0.43,1.71-1.46,1.71c-1.03,0-1.46-0.73-1.46-1.71v-3.46
					c0-0.98,0.42-1.71,1.46-1.71C322.29,337.27,322.72,338,322.72,338.98z"/>
				<path class="st8" d="M323.41,338.98c0-0.98,0.45-1.71,1.48-1.71c1.04,0,1.5,0.72,1.5,1.71v3.46c0,0.98-0.45,1.71-1.5,1.71
					c-1.02,0-1.48-0.72-1.48-1.71V338.98z M323.86,342.46c0,0.73,0.29,1.27,1.03,1.27c0.75,0,1.05-0.54,1.05-1.27v-3.51
					c0-0.73-0.3-1.27-1.05-1.27c-0.74,0-1.03,0.54-1.03,1.27V342.46z"/>
				<path class="st8" d="M327.53,344.08h-0.41v-6.76h0.58l2.03,5.7v-5.7h0.41v6.76h-0.49l-2.11-6.02V344.08z"/>
				<path class="st8" d="M332.04,344.08v-6.35h-1.37v-0.41h3.19v0.41h-1.38v6.35H332.04z"/>
				<path class="st8" d="M334.69,342.59l-0.34,1.5h-0.41l1.48-6.77h0.65l1.51,6.77h-0.44l-0.34-1.5H334.69z M334.76,342.2h1.97
					l-0.99-4.37L334.76,342.2z"/>
				<path class="st8" d="M341.13,338.98v0.56h-0.42v-0.59c0-0.72-0.28-1.27-1.02-1.27s-1.02,0.55-1.02,1.27v3.51
					c0,0.72,0.28,1.26,1.02,1.26s1.02-0.54,1.02-1.26v-0.8h0.42v0.77c0,0.98-0.42,1.71-1.46,1.71c-1.03,0-1.46-0.73-1.46-1.71v-3.46
					c0-0.98,0.42-1.71,1.46-1.71C340.71,337.27,341.13,338,341.13,338.98z"/>
				<path class="st8" d="M343,344.08v-6.35h-1.37v-0.41h3.19v0.41h-1.38v6.35H343z"/>
				<path class="st8" d="M348.22,338.96v0.14h-0.43v-0.17c0-0.71-0.27-1.26-1-1.26c-0.73,0-1,0.53-1,1.25
					c0,1.64,2.44,1.67,2.44,3.53c0,0.98-0.43,1.69-1.46,1.69s-1.46-0.71-1.46-1.69v-0.35h0.42v0.38c0,0.72,0.28,1.24,1.02,1.24
					s1.02-0.52,1.02-1.24c0-1.62-2.44-1.65-2.44-3.53c0-1.01,0.44-1.67,1.44-1.68C347.8,337.27,348.22,337.99,348.22,338.96z"/>
			</g>
			<g>
				<path class="st8" d="M274.15,344.08h-0.44l-1.43-5.97v5.98h-0.4v-6.76h0.64l1.42,5.97l1.41-5.97h0.64v6.76h-0.43v-6
					L274.15,344.08z"/>
				<path class="st8" d="M277.18,342.45c0,0.72,0.27,1.28,1.01,1.28c0.74,0,1.01-0.56,1.01-1.28v-5.12h0.41v5.11
					c0,0.96-0.41,1.71-1.44,1.71s-1.45-0.74-1.45-1.71v-5.11h0.44V342.45z"/>
				<path class="st8" d="M281.53,344.08v-6.35h-1.37v-0.41h3.19v0.41h-1.38v6.35H281.53z"/>
				<path class="st8" d="M286.19,340.46v0.41h-1.84v2.82h2.22v0.41h-2.66v-6.76h2.66v0.41h-2.22v2.72H286.19z"/>
			</g>
			<g>
				<path class="st8" d="M207.04,344.08h-0.4v-6.76h0.58l2.03,5.7v-5.7h0.41v6.76h-0.49l-2.11-6.02V344.08z"/>
				<path class="st8" d="M210.38,338.98c0-0.98,0.45-1.71,1.48-1.71c1.04,0,1.5,0.72,1.5,1.71v3.46c0,0.98-0.45,1.71-1.5,1.71
					c-1.02,0-1.48-0.72-1.48-1.71V338.98z M210.83,342.46c0,0.73,0.29,1.27,1.03,1.27c0.75,0,1.05-0.54,1.05-1.27v-3.51
					c0-0.73-0.3-1.27-1.05-1.27c-0.74,0-1.03,0.54-1.03,1.27V342.46z"/>
				<path class="st8" d="M215.23,344.08v-6.35h-1.37v-0.41h3.19v0.41h-1.38v6.35H215.23z"/>
				<path class="st8" d="M219.89,340.46v0.41h-1.84v2.82h2.22v0.41h-2.66v-6.76h2.66v0.41h-2.22v2.72H219.89z"/>
				<path class="st8" d="M222.4,337.33c1.04,0,1.45,0.66,1.45,1.64v0.73c0,1.07-0.49,1.6-1.56,1.6h-0.84v2.78H221v-6.76H222.4z
					 M222.28,340.9c0.78,0,1.12-0.35,1.12-1.17v-0.79c0-0.73-0.25-1.21-1-1.21h-0.96v3.17H222.28z"/>
				<path class="st8" d="M225.03,342.59l-0.34,1.5h-0.41l1.48-6.77h0.65l1.51,6.77h-0.44l-0.34-1.5H225.03z M225.1,342.2h1.97
					l-0.99-4.37L225.1,342.2z"/>
				<path class="st8" d="M230.08,337.33c1.04,0,1.5,0.69,1.5,1.68v3.4c0,0.99-0.45,1.68-1.5,1.68h-1.49v-6.76H230.08z
					 M230.07,343.68c0.75,0,1.06-0.51,1.06-1.25v-3.44c0-0.74-0.32-1.25-1.06-1.25h-1.03v5.94H230.07z"/>
			</g>
			<g>
				
					<ellipse transform="matrix(0.3776 -0.926 0.926 0.3776 -180.5123 494.5729)" class="st4" cx="277.66" cy="381.57" rx="21.82" ry="21.82"/>
				<g>
					<path class="st8" d="M291.38,386.82c0.38-0.5,0.84-0.95,1.14-1.5c0.75-1.38,0.48-3.06-0.67-4.18c-2.53-2.48-5.5-4.25-8.96-5.06
						c-7.06-1.66-13.26,0.05-18.55,4.98c-1.43,1.34-1.57,3.33-0.37,4.86c0.45,0.58,1,1.09,1.55,1.57c0.15,0.13,0.53,0.14,0.72,0.04
						c1.5-0.72,2.97-1.48,4.46-2.21c0.39-0.19,0.5-0.44,0.41-0.86c-0.17-0.74-0.29-1.49-0.45-2.23c-0.1-0.42,0.02-0.66,0.44-0.83
						c4.64-1.83,9.28-1.82,13.92,0.01c0.38,0.15,0.52,0.37,0.43,0.78c-0.16,0.72-0.26,1.45-0.44,2.17
						c-0.14,0.53,0.04,0.81,0.52,1.04c1.2,0.56,2.37,1.17,3.56,1.76C290.55,387.89,290.15,387.92,291.38,386.82z"/>
					<path class="st8" d="M291.38,386.82c-1.23,1.1-0.83,1.07-2.3,0.34c-1.18-0.59-2.36-1.2-3.56-1.76
						c-0.48-0.23-0.66-0.5-0.52-1.04c0.18-0.71,0.28-1.45,0.44-2.17c0.09-0.41-0.05-0.62-0.43-0.78c-4.64-1.83-9.28-1.83-13.92-0.01
						c-0.42,0.16-0.53,0.4-0.44,0.83c0.17,0.74,0.28,1.49,0.45,2.23c0.1,0.42-0.02,0.67-0.41,0.86c-1.49,0.73-2.97,1.49-4.46,2.21
						c-0.2,0.09-0.58,0.08-0.72-0.04c-0.55-0.48-1.1-0.99-1.55-1.57c-1.19-1.53-1.06-3.52,0.37-4.86c5.3-4.93,11.49-6.64,18.55-4.98
						c3.46,0.81,6.42,2.58,8.96,5.06c1.15,1.13,1.43,2.8,0.67,4.18C292.22,385.86,291.76,386.32,291.38,386.82z"/>
				</g>
			</g>
			<g>
				<path class="st8" d="M265.24,79.37c1.29,0,1.85,0.85,1.85,2.08v4.21c0,1.23-0.56,2.08-1.85,2.08h-1.84v-8.37H265.24z
					 M265.22,87.23c0.93,0,1.31-0.63,1.31-1.55v-4.26c0-0.92-0.39-1.55-1.31-1.55h-1.28v7.36H265.22z"/>
				<path class="st8" d="M268.55,79.37v8.37H268v-8.37H268.55z"/>
				<path class="st8" d="M270.31,85.88l-0.42,1.85h-0.5l1.83-8.38h0.8l1.87,8.38h-0.55l-0.42-1.85H270.31z M270.39,85.4h2.44
					l-1.23-5.42L270.39,85.4z"/>
				<path class="st8" d="M274.72,87.73v-8.37h0.55v7.87h2.63v0.5H274.72z"/>
				<path class="st8" d="M279.28,79.37v8.37h-0.55v-8.37H279.28z"/>
				<path class="st8" d="M280.74,87.73h-0.5v-8.37h0.72l2.51,7.07v-7.07h0.5v8.37h-0.61l-2.62-7.46V87.73z"/>
				<path class="st8" d="M288.48,81.41v0.62h-0.53v-0.66c0-0.9-0.35-1.58-1.27-1.58c-0.92,0-1.27,0.68-1.27,1.58v4.35
					c0,0.9,0.35,1.57,1.27,1.57c0.92,0,1.27-0.67,1.27-1.57v-1.81h-1.11v-0.5h1.64v2.27c0,1.21-0.53,2.12-1.8,2.12
					c-1.28,0-1.81-0.91-1.81-2.12v-4.28c0-1.21,0.53-2.12,1.81-2.12C287.96,79.29,288.48,80.2,288.48,81.41z"/>
				<path class="st8" d="M289.82,86.68v1.05h-0.54v-1.05H289.82z"/>
				<path class="st8" d="M291.32,86.68v1.05h-0.54v-1.05H291.32z"/>
				<path class="st8" d="M292.81,86.68v1.05h-0.54v-1.05H292.81z"/>
				<path class="st8" d="M294.31,86.68v1.05h-0.54v-1.05H294.31z"/>
			</g>
		</g>
	</g>
	<text transform="matrix(0.8246 0 0 1 244.2275 186.335)" class="st8 st17 st18">ADAM</text>
</g>
<g id="Character">
	<g>
		<g>
			<g>
				<path class="st6" d="M140.6,148.28c0,0-3.64-2.73-6.83-4.55c-3.19-1.82-4.33-5.92-4.33-8.42c0-2.5-0.68-5.24-0.23-6.83
					c0.46-1.59,0.68-15.93,2.28-16.39c1.59-0.46,11.18,10.39,15.25,17.3c4.07,6.92,4.78,12.52,4.78,12.52L140.6,148.28z"/>
				<path class="st5" d="M127.63,122.3l9.11,17.44c0.44,0.84,1.58,1.01,2.24,0.32l5.01-5.17c0.42-0.43,0.51-1.08,0.24-1.61
					l-9.1-17.61c-0.44-0.86-1.6-1.02-2.26-0.32l-5.02,5.35C127.44,121.13,127.35,121.77,127.63,122.3z"/>
				<path class="st6" d="M145.45,123.81c0,0-1.28-4.67-2.21-5.88c-0.93-1.21-9.28-1.73-9.98,0.22c-0.69,1.94,0.44,3.25,2.08,3.54
					c1.63,0.29,4.89,0.35,4.89,0.35l3.18,2.31L145.45,123.81z"/>
				<path class="st6" d="M149.25,124.6c0,0-3.19-3.64-4.55-4.33c-1.37-0.68-9.11,2.5-8.88,4.55c0.23,2.05,1.82,2.73,3.41,2.28
					s4.55-1.82,4.55-1.82l3.87,0.68L149.25,124.6z"/>
				<path class="st6" d="M146.74,129.38c0,0-2.05,0.68-3.19,1.37c-1.14,0.68-3.64,2.05-4.1-0.46c-0.46-2.5,5.69-5.92,5.69-5.92
					s5.46-1.82,5.69,2.28c0.23,4.1-2.05,10.47-2.28,11.15"/>
			</g>
			<g>
				<path class="st19" d="M146.33,199.47c0,0,13.17,14.37,25.15,12.87c11.97-1.5,10.78-20.06,7.78-28.44
					c-2.99-8.38-28.44-47.6-28.44-47.6l-12.87,14.37l8.68,20.66c0,0-7.18-12.57-10.48-15.57c-3.29-2.99-4.19-3.59-4.19-3.59"/>
				<line class="st6" x1="146.63" y1="171.33" x2="154.11" y2="191.68"/>
			</g>
		</g>
		<g>
			<path class="st5" d="M141.64,242.45c0,0,4.63,17.37,3.76,43.72c-0.87,26.35-4.63,53.86-4.92,56.17
				c-0.29,2.32-4.92,56.46-4.92,70.36c0,13.9-0.62,21.74-0.62,21.74l2.03,18.82l-19.98-1.74c0,0,0.62-32.74-3.15-47.8
				c-3.76-15.06-4.63-23.74-2.61-36.48c2.03-12.74,4.92-22.88,4.92-22.88s0.58-25.48-0.29-33.3c-0.87-7.82-2.61-15.93-2.61-15.93
				s-9.56,42.57-14.77,59.36c-5.21,16.79-16.05,56.51-18.08,65.48c-2.03,8.98-4.05,30.69-4.05,30.69l-16.22-0.87
				c0,0-3.06-27.84,0.41-54.48c3.47-26.64,9.27-48.65,13.03-60.81c3.76-12.16,5.79-41.41,5.79-53.57c0-12.16-2.03-17.37,0.29-26.64
				c2.32-9.27,5.5-17.08,5.5-17.08s37.06,2.03,42.57,1.16c5.5-0.87,12.45-0.58,12.45-0.58L141.64,242.45z"/>
			<path class="st6" d="M101.6,341.19c0,0-10.87-1.98-18.12,0c-7.25,1.98,6.92,8.24,11.86,8.24
				C100.29,349.43,101.28,344.49,101.6,341.19z"/>
			<path class="st6" d="M139.83,344.16c0,0-21.42-3.62-17.47,1.65c3.95,5.27,12.85,8.24,13.84,8.24s2.97,1.32,3.3-0.99
				C139.83,350.75,139.83,344.16,139.83,344.16z"/>
		</g>
		<g>
			<path class="st6" d="M101.57,137.38c0,0-12.49,4.8-17.54,9.13c-5.04,4.32-2.64,12.49,0.96,26.9c3.6,14.41,14.41,57.41,14.41,62.7
				c0,5.28,1.2,12.25,1.2,12.25s7.45,1.92,18.02,0.72c10.57-1.2,24.26-1.92,24.26-1.92s3.62-10.58,1.29-23.26
				c-5.19-28.3-10.66-53.37-16.66-65.87s-5.04-15.61-14.41-19.46C103.73,134.74,101.57,137.38,101.57,137.38z"/>
		</g>
		<path class="st6" d="M114.3,137.14c0,0,11.77,14.65,10.09,26.9c-1.68,12.25-18.5,12.73-26.18,0.24
			c-7.69-12.49-5.77-22.82-1.44-25.94C101.09,135.22,109.26,132.34,114.3,137.14z"/>
		<g>
			<path class="st19" d="M130.16,169.53c0,0,8.68,37.12,8.08,71.25c-0.6,34.13-1.2,78.44-0.6,79.63c0.6,1.2,37.12-13.47,41.01-15.57
				c3.89-2.1-7.48-40.41-11.68-51.19c-4.19-10.78-17.66-49.7-17.66-49.7s-8.68-41.01-11.97-45.8c-3.29-4.79-8.08-7.48-11.38-9.88
				C122.68,145.88,130.16,169.53,130.16,169.53z"/>
			<circle class="st6" cx="169.15" cy="298.62" r="2.03"/>
			<circle class="st6" cx="164.51" cy="273.72" r="2.03"/>
			<path class="st6" d="M159.3,248.82c0,1.12-0.91,2.03-2.03,2.03c-1.12,0-2.03-0.91-2.03-2.03c0-1.12,0.91-2.03,2.03-2.03
				C158.39,246.79,159.3,247.7,159.3,248.82z"/>
		</g>
		<g>
			<path class="st19" d="M116.69,139.89c0,0,15.27,7.48,17.96,10.78c2.69,3.29-3.89,20.36-3.89,20.36L116.69,139.89z"/>
			<path class="st6" d="M126.56,145.11c0.76,5.49,0.75,12.99,0.62,18l3.58,7.91c0,0,6.59-17.06,3.89-20.36
				C133.51,149.27,130.1,147.12,126.56,145.11z"/>
		</g>
		<g>
			<path class="st6" d="M113.82,158.28c0,0-1.2-3.84,6.01-14.89c7.21-11.05,8.65-12.73,8.65-12.73l-30.99-4.8
				c0,0-2.16,19.22-2.16,19.94"/>
			<path class="st5" d="M128.47,130.66l-19.08-2.96l-1.85,2.22c0,0,7.67,5.75,15.42,8.7C127.46,131.85,128.47,130.66,128.47,130.66z
				"/>
		</g>
		<g>
			<path class="st6" d="M125.59,92.94c0,0,5.04,6.49,4.56,9.61c-0.48,3.12,1.2,5.53,2.88,6.25c1.68,0.72,4.56,1.44,3.84,3.12
				c-0.72,1.68-2.4,4.08-2.4,4.08s3.84,13.45,1.44,15.13c-2.4,1.68-8.65,2.16-12.73,2.16c-4.08,0-13.21-1.68-13.21-1.68
				s-9.13-10.57-8.65-18.98c0.48-8.41,6.73-14.65,10.81-17.06C116.22,93.18,125.59,92.94,125.59,92.94z"/>
			<path class="st20" d="M126.92,107.48c0.55,1.13,0.57,2.26,0.03,2.53c-0.54,0.26-1.42-0.44-1.97-1.58
				c-0.55-1.13-0.57-2.26-0.03-2.53C125.49,105.65,126.37,106.35,126.92,107.48z"/>
			<path class="st21" d="M125.35,118.41c0,0,1.44,3.12,6.73,1.44"/>
			<path class="st21" d="M121.99,103.51c0,0,2.16-3.36,6.49-1.92"/>
		</g>
		<path class="st19" d="M85.24,146.51c0,0,10.81,26.66,14.89,48.76c4.08,22.1,10.33,54.29,9.85,71.59s-3.36,58.13-5.53,59.82
			c-2.16,1.68-36.75,0.24-48.04-3.84c-11.29-4.08-14.89-4.8-14.65-6.73c0.24-1.92,11.05-75.67,12.01-84.08
			c0.96-8.41,10.57-67.74,10.57-67.74s3.36-6.73,8.65-10.81C78.27,149.4,85.24,146.51,85.24,146.51z"/>
		<g>
			<path class="st6" d="M73.45,296.11c0,0,0.66,7.92,0.99,8.91c0.33,0.99,1.65,4.95,1.98,6.93c0.33,1.98-4.95-0.99-5.94-2.64
				c-0.99-1.65-0.99-1.65-0.99-1.65s-3.63,4.29-5.28,4.95c-1.65,0.66-5.28-1.98-5.94-3.3c-0.66-1.32-3.63-1.32-4.29-4.62
				c-0.66-3.3,0-8.25,0-8.25L73.45,296.11z"/>
			<path class="st19" d="M63.05,167.53c0,0-4.94,17.14-5.93,28.67c-0.99,11.53-7.25,99.85-7.25,99.85s0.99,3.3,11.2,4.61
				c10.22,1.32,14.17-1.32,14.83-3.3c0.66-1.98,14.83-111.05,14.83-111.05"/>
		</g>
		<g>
			<path class="st19" d="M96.53,179.9c0,0-8.89-8.17-19.22-10.33s-14.41,1.2-14.41,1.2s-4.8-3.6-3.12-7.93
				c1.68-4.32,7.69-6.25,7.69-6.25s2.16-1.68,7.69-5.53c5.53-3.84,10.09-4.56,10.09-4.56S95.8,173.18,96.53,179.9z"/>
			<path class="st6" d="M59.77,162.85c-1.68,4.32,3.12,7.93,3.12,7.93s4.08-3.36,14.41-1.2c10.33,2.16,19.22,10.33,19.22,10.33
				c-8.89-24.74-29.07-23.3-29.07-23.3S61.45,158.52,59.77,162.85z"/>
		</g>
		<g>
			<path class="st6" d="M75.12,444.43c0,0,2.64-7.58-0.33-8.57c-2.97-0.99-13.84-1.32-14.83,0.99c-0.99,2.31-0.99,3.3-0.99,4.61
				c0,1.32-1.98-0.99-1.98,2.97c0,3.95,0.33,11.53,0.33,11.53s-9.89,6.59-11.2,10.22c-1.32,3.62-0.33,8.9,1.98,9.23
				c2.31,0.33,31.96,0,31.96,0s1.32-1.65,1.32-7.25c0-5.6-1.32-15.49-1.32-15.49s4.28-8.24,1.98-9.56
				C79.73,441.79,75.12,444.43,75.12,444.43z"/>
			<path class="st6" d="M81.37,469.14H45.55c-0.16,3.01,0.83,6.01,2.55,6.26c2.31,0.33,31.96,0,31.96,0S81.22,473.95,81.37,469.14z"
				/>
			<polyline class="st6" points="75.12,444.43 73.47,454.97 59.96,453.66 58.97,441.46 			"/>
		</g>
		<g>
			<path class="st6" d="M129,448.08c0,0-12.19-3.95-13.84-2.64c-1.65,1.32-2.97,3.95-1.98,5.27c0.99,1.32,1.98,2.64,1.98,2.64
				s-3.95,14.17-2.31,16.81c1.65,2.64,11.2,4.28,18.45,4.28c7.25,0,13.84-1.65,16.48-0.33c2.64,1.32,18.45,3.3,21.09,1.32
				c2.64-1.98,2.31-10.54-0.66-10.54c-2.97,0-17.79-6.26-21.42-9.89c-3.62-3.62-4.94-7.91-4.94-7.91s0.33-8.24-0.99-10.87
				s-8.57-3.3-9.89,0.33C129.66,440.17,129,448.08,129,448.08z"/>
			<path class="st6" d="M168.87,475.43c1.11-0.83,1.69-2.84,1.77-4.88c-6.96,2.03-17.14,0.88-20.55-0.39
				c-10.43-3.87-12.52-1.65-19.77-1.65c-5.34,0-13.72-1.61-17.76-2.46c-0.18,1.86-0.14,3.4,0.3,4.1c1.65,2.64,11.2,4.28,18.45,4.28
				c7.25,0,13.84-1.65,16.48-0.33C150.42,475.43,166.23,477.41,168.87,475.43z"/>
			<path class="st6" d="M129,448.08l8.57,8.57c0,0,2.31-5.27,5.27-6.92"/>
		</g>
		<path class="st5" d="M111.9,102.31c0,0-3.12,5.04-0.48,6.25c2.64,1.2,6.25,3.6,5.04,6.73s-7.21,4.56-3.84,7.21
			c3.36,2.64,9.13,5.53,6.25,8.65c-2.88,3.12-6.01,2.88-5.53,5.04c0.48,2.16,3.6,4.08,1.2,6.25c-2.4,2.16-6.49-3.12-8.41-1.92
			c-1.92,1.2,1.92,6.49-2.16,7.93c-4.08,1.44-8.89-5.04-10.81-3.6c-1.92,1.44-0.72,4.32-5.77,5.04c-5.04,0.72-6.25-3.6-8.17-3.6
			c-1.92,0-7.93,1.92-8.17-1.92c-0.24-3.84,1.92-9.37,4.32-9.37s3.36,1.68,2.88-0.96c-0.48-2.64-3.36-4.32,0-5.77
			s5.28-1.68,5.28-1.68s1.2-5.04,11.77-13.69C105.89,104.23,111.9,102.31,111.9,102.31z"/>
		<g>
			<path class="st6" d="M92.68,82.13c0,0,2.16,0.48,4.56-3.12C99.65,75.41,95.32,67,86.92,67S67.7,79.25,71.3,84.06
				c3.6,4.8,10.33,2.4,11.29,2.4S92.68,82.13,92.68,82.13z"/>
			<path class="st6" d="M119.11,86.7c0,0-6.49-4.08-15.85-5.28c-9.37-1.2-16.58,0.48-21.38,6.01c-4.8,5.53-7.45,12.25-7.21,20.18
				c0.24,7.93,5.77,13.93,5.77,13.93s15.61-17.06,24.98-23.06c9.37-6.01,14.65-10.09,14.65-10.09L119.11,86.7z"/>
			<g>
				<path class="st6" d="M81.42,128.84c0.42,0.71,1.42,0.75,1.9,0.07c2.19-3.13,8.47-10.89,22.58-20.6
					c18.5-12.73,21.38-13.21,21.38-13.21s-6.01-8.89-7.93-10.09c-1.92-1.2-19.94,8.65-30.27,18.74s-12.73,15.37-11.53,18.02
					C78.36,123.56,80.27,126.88,81.42,128.84z"/>
				<line class="st21" x1="79.2" y1="116.46" x2="83.81" y2="124.7"/>
				<line class="st21" x1="81.5" y1="114.15" x2="85.46" y2="120.74"/>
				<line class="st21" x1="83.81" y1="110.53" x2="89.41" y2="118.1"/>
				<line class="st21" x1="88.09" y1="108.55" x2="93.04" y2="115.47"/>
				<line class="st21" x1="93.04" y1="101.96" x2="100.29" y2="110.86"/>
				<line class="st21" x1="103.91" y1="99.65" x2="106.88" y2="103.28"/>
				<line class="st21" x1="113.8" y1="89.44" x2="116.76" y2="93.39"/>
			</g>
		</g>
	</g>
</g>
<g id="Floor">
	<line class="st22" x1="17" y1="475" x2="474" y2="475"/>
</g>
</svg>
